<?xml version="1.0" encoding="UTF-8"?>
<svg id="_图层_1" data-name="图层_1" xmlns="http://www.w3.org/2000/svg" version="1.1" viewBox="0 0 800 800">
  <!-- Generator: Adobe Illustrator 30.4.0, SVG Export Plug-In . SVG Version: 2.1.4 Build 226)  -->
  <g id="Livello_1-2">
    <g id="Disegno_3">
      <g>
        <path d="M399.6935,50c193.5212,0,350.3065,157.1765,350.3065,350s-156.7431,350-350.3066,350S50,592.7706,50,400,206.7325,50,399.6935,50" style="fill: #00abe7;"/>
        <path d="M725.6962,400c0-179.5563-146.2668-325.6962-326.0028-325.6962S73.6906,220.4437,73.6906,400s146.2668,325.6962,326.0028,325.6962,326.0028-146.1822,326.0028-325.6962M399.6935,60.4657c187.7386,0,339.7985,152.4934,339.7985,339.5343s-152.0494,339.5237-339.7985,339.5237S60.4657,586.9986,60.4657,400,212.5151,60.4657,399.6935,60.4657" style="fill: #fff;"/>
        <path d="M152.0358,400c0-136.9427,111.1484-248.0065,247.7-248.0065s248.218,111.0638,248.218,248.0065-111.1484,247.4357-248.218,247.4357-247.7-111.0638-247.7-247.4357M399.6935,162.3324c-130.769,0-237.2765,106.4229-237.2765,237.6677s106.5498,237.0968,237.2765,237.0968,237.8791-106.4229,237.8791-237.0968-106.5498-237.6677-237.8791-237.6677" style="fill: #fff;"/>
        <path d="M453.2908,256.133v12.654h9.2394c16.6818,0,29.9595,13.2249,29.9595,29.3887v130.0184c0,1.1417-1.7549,2.3257-2.886,1.1417l-144.5648-173.2029h-88.7263v12.654h4.0277c5.2117,0,10.3389,2.3152,13.7958,6.3534l5.2117,5.7826,13.2249,16.1109v201.4075c0,14.9375-11.5652,26.4921-26.4921,26.4921h-9.8103v10.9098h94.9846v-10.9098h-7.4846c-17.2526,0-31.7038-13.7957-31.7038-31.6193v-170.3169c0-1.1417,1.1417-1.1417,1.7549-.5709l184.8526,220.9859h12.1255v-248.0065c0-14.9375,12.1361-26.4921,26.4921-26.4921h6.3535v-12.654h-90.4389.0423l.0423-.1269h0Z" style="fill: #fff;"/>
      </g>
    </g>
  </g>
</svg>